<svg class="h-16 object-contain object-left lg:h-20 xxl:h-28" viewBox="0 0 176 63" fill="none" xmlns="http://www.w3.org/2000/svg"><path d="M146.62 26.34C150.95 26.18 154.59 29.56 154.75 33.89C154.91 38.22 151.53 41.86 147.19 42.02C142.86 42.18 139.22 38.8 139.06 34.47C138.9 30.14 142.28 26.5 146.61 26.34M146.61 26.49C142.36 26.65 139.04 30.22 139.2 34.47C139.36 38.72 142.93 42.04 147.18 41.88C151.43 41.72 154.75 38.15 154.59 33.9C154.43 29.65 150.86 26.33 146.61 26.49Z" fill="currentColor"></path><path fill-rule="evenodd" clip-rule="evenodd" d="M147.09 38.68C147.21 39.04 147.28 39.39 147.31 39.79C147.17 39.89 147.17 39.79 147.1 39.74C146.79 39.55 147 39.12 146.95 38.83C146.97 38.76 146.94 38.66 147 38.6L147.1 38.68H147.09ZM146.84 38.66C146.85 38.96 146.85 39.26 146.84 39.58C146.76 39.69 146.66 39.76 146.58 39.87C146.42 39.72 146.51 39.57 146.53 39.4C146.57 39.13 146.7 38.89 146.76 38.63L146.84 38.66ZM150.15 38.48C150.18 38.54 150.15 38.6 150.15 38.65C149.98 38.83 149.72 38.77 149.47 38.77C149.5 38.57 149.61 38.47 149.75 38.44C149.88 38.44 150.03 38.43 150.15 38.48ZM147.31 38.71C147.44 39.07 147.77 39.35 147.77 39.74C147.55 39.8 147.56 39.67 147.52 39.56C147.39 39.22 147.19 38.91 147.12 38.56C147.22 38.4 147.26 38.65 147.31 38.7M149.41 38.51C149.41 38.6 149.32 38.64 149.27 38.7C149.18 38.74 149.06 38.75 148.98 38.72C148.93 38.68 148.91 38.62 148.91 38.56C149.13 38.42 149.33 38.38 149.4 38.51M148.66 38.44C148.71 38.63 148.66 38.7 148.61 38.74C148.39 38.85 148.27 38.58 148.12 38.5L148.66 38.45V38.44ZM146.66 38.48C146.64 38.78 146.5 39.04 146.44 39.32C146.34 39.48 146.29 39.64 146.26 39.82C146.07 39.82 146.02 39.72 146.07 39.64C146.11 39.5 146.19 39.36 146.22 39.22C146.35 38.96 146.5 38.69 146.6 38.43L146.66 38.48ZM146.52 38.45C146.44 38.76 146.22 39.03 146.06 39.3C145.98 39.4 145.9 39.51 145.86 39.63C145.71 39.56 145.74 39.5 145.77 39.45C146 39.1 146.22 38.76 146.49 38.42L146.53 38.46L146.52 38.45ZM147.96 39.28C148.07 39.38 148.17 39.53 148.14 39.66C147.96 39.64 147.93 39.5 147.85 39.41C147.62 39.12 147.39 38.79 147.26 38.44C147.55 38.64 147.71 38.99 147.96 39.27M145.64 38.46C145.49 38.58 145.42 38.83 145.21 38.74C145.16 38.58 145.24 38.48 145.33 38.44C145.41 38.43 145.55 38.41 145.64 38.46ZM144.89 38.46C144.93 38.57 144.89 38.65 144.81 38.71C144.68 38.73 144.52 38.77 144.41 38.67C144.44 38.58 144.47 38.46 144.59 38.43C144.68 38.43 144.81 38.41 144.9 38.47M146.41 38.37C146.36 38.51 146.23 38.63 146.14 38.77C146.02 38.95 145.78 39.06 145.69 39.26C145.64 39.33 145.6 39.48 145.47 39.46C145.39 39.31 145.57 39.2 145.63 39.09C145.85 38.83 146.13 38.61 146.37 38.37H146.41ZM144.32 38.5C144.34 38.57 144.3 38.63 144.27 38.68C144.1 38.8 143.82 38.78 143.63 38.73C143.59 38.7 143.58 38.64 143.59 38.59C143.7 38.36 144 38.49 144.2 38.46L144.32 38.5ZM147.96 38.84C148.12 39.06 148.31 39.2 148.46 39.42C148.47 39.49 148.44 39.54 148.41 39.59C148.08 39.18 147.73 38.92 147.51 38.54C147.46 38.46 147.34 38.39 147.37 38.29C147.64 38.46 147.79 38.64 147.96 38.84ZM147.63 38.24C147.96 38.52 148.3 38.84 148.58 39.19C148.43 39.27 148.38 39.13 148.3 39.07C148.04 38.81 147.77 38.51 147.54 38.25L147.62 38.23L147.63 38.24ZM146.3 38.26C146.31 38.33 146.22 38.38 146.18 38.43C145.99 38.67 145.7 38.81 145.52 39.06C145.47 39.1 145.45 39.17 145.38 39.17C145.28 39.05 145.34 38.99 145.38 38.93C145.64 38.69 145.95 38.46 146.25 38.25H146.29L146.3 38.26ZM146.31 37.88C146.32 37.95 146.31 38.02 146.27 38.08C146.14 38.13 146.05 38.28 145.91 38.32C145.66 38.31 145.38 38.35 145.16 38.32C145.41 37.86 145.82 37.86 146.13 37.61C146.26 37.63 146.26 37.79 146.31 37.89M147.86 37.63C148.01 37.69 148.18 37.7 148.3 37.84C148.45 37.98 148.58 38.09 148.69 38.24L147.86 38.32C147.75 38.22 147.59 38.13 147.52 38C147.52 37.84 147.63 37.7 147.66 37.55C147.75 37.46 147.78 37.61 147.86 37.64M147.59 33.64C147.61 33.7 147.63 33.77 147.65 33.82C147.71 34.03 147.73 34.24 147.67 34.45C147.61 34.81 147.6 35.16 147.71 35.52C147.71 35.67 147.85 35.77 147.84 35.91C148.01 36.1 147.85 36.33 147.84 36.56C147.74 36.88 147.66 37.17 147.49 37.37C147.46 37.5 147.52 37.51 147.49 37.58C147.42 37.82 147.34 38.07 147.16 38.26C147.09 38.35 147.02 38.52 146.86 38.5C146.52 38.26 146.4 37.87 146.28 37.5C146.36 37.4 146.37 37.49 146.42 37.44C146.37 37.36 146.3 37.28 146.27 37.19C146.16 37.01 146.12 36.78 146.15 36.57C146.1 36.53 146.06 36.62 146.01 36.59C145.94 36.5 145.95 36.34 145.89 36.25C145.89 36.18 145.87 36.12 145.87 36.04C145.94 35.84 146.03 35.63 146.06 35.42C146.1 35.32 146.1 35.23 146.15 35.13C146.16 34.91 146.25 34.65 146.18 34.41C146.26 34.27 146.47 34.35 146.6 34.28C146.88 34.2 147.09 33.95 147.13 33.67C147.13 33.56 147.16 33.43 147.28 33.39C147.42 33.37 147.51 33.52 147.57 33.63M146.87 33.11C146.78 33.28 146.73 33.23 146.7 33.21C146.68 33.08 146.7 33.05 146.74 33.03L146.87 33.11ZM149.25 32.93C149.25 33 149.21 33.07 149.25 33.13C149.32 33.08 149.38 32.97 149.48 33.04C149.52 33.1 149.48 33.16 149.46 33.22C149.43 33.32 149.25 33.32 149.32 33.43C149.44 33.43 149.53 33.28 149.66 33.38C149.6 33.58 149.5 33.61 149.46 33.68C149.62 33.7 149.79 33.76 149.85 33.92C149.62 34.07 149.5 33.98 149.37 34.01C149.48 34.11 149.65 34.19 149.64 34.36C149.4 34.43 149.28 34.3 149.16 34.25C149.23 34.38 149.31 34.47 149.3 34.59C149.23 34.7 149.13 34.59 149.06 34.57C148.99 34.54 148.95 34.42 148.87 34.44C148.87 34.54 149.07 34.63 148.9 34.7C148.76 34.73 148.65 34.65 148.58 34.55C148.55 34.47 148.5 34.39 148.52 34.29C148.64 34.03 148.86 33.78 148.98 33.52C149.07 33.33 149.08 33.12 149.16 32.93H149.24H149.25ZM144.9 33.37C144.94 33.59 145.16 33.71 145.28 33.9C145.35 34.09 145.49 34.28 145.41 34.5C145.34 34.61 145.25 34.73 145.1 34.71C145.04 34.68 145.03 34.61 145.02 34.55C144.95 34.49 144.89 34.61 144.79 34.59C144.64 34.38 144.76 34.32 144.79 34.21C144.68 34.23 144.58 34.38 144.43 34.34C144.37 34.32 144.32 34.26 144.35 34.19C144.35 34.1 144.43 34 144.49 33.94C144.36 33.96 144.19 34.07 144.09 33.93C144.06 33.85 144.13 33.81 144.19 33.76C144.27 33.73 144.35 33.68 144.43 33.65C144.22 33.52 144.14 33.42 144.15 33.32C144.17 33.25 144.26 33.27 144.31 33.27C144.41 33.29 144.48 33.41 144.59 33.4C144.66 33.34 144.55 33.3 144.56 33.24C144.52 33.16 144.47 33.09 144.52 32.99C144.66 33.01 144.68 33.1 144.75 33.09C144.75 33.02 144.67 32.91 144.75 32.85C144.91 32.97 144.84 33.21 144.9 33.38M146.44 32.8C146.48 32.96 146.56 33.14 146.46 33.28C146.29 33.44 146.13 33.21 145.97 33.16C146 33.08 146.12 33.11 146.21 33.13C146.27 33.14 146.34 33.19 146.4 33.16C146.48 32.96 146.21 32.85 146.11 32.71C146.23 32.63 146.35 32.72 146.44 32.8ZM149.98 32.52C149.89 32.74 149.74 32.78 149.62 32.76C149.69 32.57 149.83 32.43 149.98 32.52ZM150.1 32.15C150.13 32.24 150.06 32.3 150.03 32.36C149.9 32.44 149.76 32.45 149.62 32.48C149.56 32.43 149.64 32.38 149.65 32.34C149.77 32.24 149.9 32.12 150.07 32.11L150.1 32.15ZM150.06 31.83L149.64 32.26C149.51 32.1 149.62 32.03 149.64 31.94C149.72 31.84 149.84 31.69 149.97 31.62C150.05 31.64 150.02 31.76 150.05 31.83M149.94 31.34C149.98 31.46 149.86 31.51 149.81 31.59L149.61 31.88C149.51 31.85 149.55 31.79 149.57 31.74C149.63 31.57 149.76 31.43 149.87 31.29L149.94 31.33V31.34ZM144.13 31.4C144.21 31.55 144.39 31.69 144.32 31.86C144.22 32.13 144.25 32.46 144.28 32.74C144.12 32.84 143.98 32.77 143.87 32.66C143.86 32.58 143.84 32.53 143.84 32.44C144.02 32.42 144.08 32.53 144.14 32.46L143.82 32.12C143.97 32.02 144.05 32.09 144.15 32.11C144.06 31.95 143.91 31.9 143.86 31.77C143.87 31.71 143.86 31.62 143.92 31.59C144 31.59 143.99 31.68 144.07 31.69C144.05 31.56 143.85 31.39 144.01 31.27L144.14 31.39L144.13 31.4ZM144.32 31.1C144.34 31.35 144.42 31.45 144.37 31.57C144.2 31.38 144.16 31.22 144.08 31.09C144.1 31.02 144.11 30.95 144.18 30.9C144.3 30.9 144.26 31.04 144.31 31.11M149.56 30.87C149.59 31.03 149.45 31.16 149.46 31.33C149.57 31.27 149.56 31.07 149.71 31.1C149.76 31.13 149.72 31.19 149.74 31.24C149.64 31.4 149.6 31.6 149.48 31.76C149.34 31.37 149.33 31.05 149.37 30.73C149.51 30.76 149.54 30.82 149.56 30.88M144.58 30.5C144.58 30.6 144.58 30.66 144.6 30.77C144.58 30.98 144.6 31.2 144.48 31.39C144.44 31.17 144.35 30.97 144.28 30.76C144.33 30.65 144.4 30.49 144.54 30.47L144.58 30.5ZM144.39 27.87C144.43 28.07 144.47 28.3 144.46 28.5C144.51 28.64 144.43 28.76 144.51 28.88C144.66 28.9 144.67 28.66 144.82 28.67C144.87 28.78 144.84 28.93 144.89 29.03C144.91 29.18 144.9 29.35 144.89 29.51C144.9 29.61 144.87 29.74 144.87 29.86C144.81 30.26 144.75 30.65 144.68 31.05C144.47 31.51 144.65 32.06 144.75 32.52C144.91 32.79 145.02 33.07 145.04 33.4C145.17 33.67 145.43 33.81 145.48 34.1C145.53 34.17 145.62 34.16 145.69 34.15C145.91 33.99 146.03 34.39 146.23 34.2C146.36 34.09 146.44 33.94 146.42 33.75C146.38 33.63 146.39 33.47 146.24 33.41C146.06 33.3 145.88 33.19 145.72 33.04C145.79 32.96 145.85 33.01 145.9 33.01C146.03 33.01 146.15 33.05 146.28 33.07C146.14 32.83 145.96 32.68 145.77 32.61C145.83 32.54 145.96 32.56 146.05 32.57C146.54 32.71 147.01 32.9 147.4 33.23C147.62 33.48 147.76 33.75 147.8 34.08C147.87 34.31 148.16 34.16 148.32 34.23C148.66 33.85 148.93 33.52 148.96 33.08C149.04 32.64 149.13 32.22 149.28 31.8C149.22 30.73 149.11 29.69 149.18 28.63C149.27 28.57 149.28 28.73 149.36 28.76C149.49 28.44 149.44 28.14 149.64 27.97C149.82 28.04 149.83 28.25 149.87 28.41C149.85 28.71 149.87 29 149.9 29.28C150.09 28.99 150.14 28.59 150.48 28.4C150.53 28.7 150.48 28.92 150.5 29.17C150.47 29.32 150.36 29.45 150.32 29.6C150.25 29.71 150.26 29.87 150.31 29.99C150.37 30.05 150.43 29.94 150.46 29.89C150.65 29.55 150.9 29.19 151.25 28.96C151.44 28.99 151.41 29.11 151.4 29.18C151.38 29.33 151.27 29.45 151.25 29.6C151.04 29.78 150.96 30 150.85 30.23C150.81 30.29 150.71 30.39 150.78 30.48C150.9 30.44 150.96 30.34 151.04 30.25C151.27 29.88 151.66 29.67 152.04 29.52C152.11 29.79 151.88 29.92 151.83 30.14C151.73 30.39 151.52 30.6 151.29 30.72C151.24 30.78 151.16 30.86 151.16 30.94C151.22 31.02 151.3 30.92 151.36 30.9C151.74 30.62 152.14 30.39 152.6 30.3C152.72 30.47 152.58 30.57 152.47 30.66C152.3 30.78 152.1 30.93 151.97 31.11C152.09 31.23 152.21 31.12 152.32 31.08C152.51 30.97 152.8 30.94 153.01 30.98C152.88 31.22 152.72 31.35 152.59 31.54C152.64 31.68 152.8 31.54 152.92 31.56C153.07 31.58 153.26 31.58 153.36 31.72C153.21 31.91 153.05 31.98 152.93 32.11C153.07 32.29 153.24 32.25 153.37 32.33C153.43 32.36 153.51 32.41 153.55 32.46C153.4 32.64 153.17 32.72 153.11 32.92C153.2 33.03 153.35 33.04 153.47 33.13C153.57 33.22 153.73 33.26 153.78 33.4C153.61 33.51 153.45 33.61 153.26 33.69C153.19 33.73 153.21 33.81 153.26 33.84C153.37 33.95 153.5 34.03 153.59 34.15C153.57 34.26 153.44 34.27 153.36 34.32C153.23 34.38 153.09 34.39 152.99 34.51C153.01 34.61 153.11 34.68 153.16 34.76C153.2 34.84 153.25 34.92 153.26 35.03C153.03 35.11 152.83 35.1 152.65 35.12C152.5 35.22 152.69 35.36 152.72 35.47C152.72 35.54 152.83 35.62 152.74 35.68C152.55 35.72 152.36 35.71 152.19 35.71C151.99 35.82 152.13 36.03 152.04 36.2C151.86 36.27 151.53 36.1 151.5 36.41C151.5 36.47 151.45 36.52 151.4 36.55C151.22 36.57 151.01 36.4 150.88 36.58C150.79 36.65 150.83 36.89 150.65 36.81C150.58 36.77 150.48 36.72 150.38 36.75C150.28 36.82 150.28 36.99 150.18 37.04C150.07 37.02 150 36.89 149.87 36.92C149.8 36.99 149.73 37.05 149.69 37.14C149.56 37.14 149.48 37 149.36 37.05C149.26 37.08 149.21 37.22 149.11 37.21C149.05 37.14 149 37.06 148.9 37.03C148.78 37.03 148.74 37.17 148.62 37.14C148.31 36.98 148.32 36.6 148.24 36.31C148.07 36.22 148.04 36.29 148.02 36.33C148.01 36.62 147.77 36.91 147.95 37.2C148.17 37.51 148.52 37.86 148.83 38.16C149.07 38.33 149.43 38.12 149.65 38.35C149.88 38.37 150.17 38.32 150.29 38.55C150.29 38.63 150.27 38.71 150.23 38.78C150.11 38.96 149.85 38.82 149.73 38.96C149.65 39.01 149.55 39.06 149.46 39.02C149.39 38.97 149.34 38.86 149.24 38.92C149.16 39 149.05 39.06 148.94 39.03C148.86 38.96 148.8 38.88 148.7 38.91C148.67 39.09 148.77 39.19 148.81 39.31C148.91 39.44 149.01 39.57 149 39.74C148.88 39.8 148.75 39.84 148.71 39.98C148.62 40.01 148.51 40 148.47 40.09C148.44 40.16 148.44 40.23 148.37 40.29C148.28 40.31 148.19 40.27 148.11 40.3C148.04 40.35 148.04 40.48 147.93 40.45C147.86 40.41 147.77 40.4 147.69 40.42C147.6 40.47 147.59 40.6 147.5 40.66L147.2 40.53C147.05 40.55 147.01 40.8 146.84 40.73C146.73 40.66 146.7 40.5 146.55 40.49L146.31 40.57C146.24 40.52 146.2 40.41 146.09 40.41C146.02 40.41 145.94 40.44 145.87 40.43C145.77 40.36 145.76 40.22 145.65 40.2C145.55 40.18 145.42 40.23 145.36 40.12C145.36 39.92 145.07 40.01 145.04 39.84C145.07 39.66 144.8 39.68 144.85 39.51C144.94 39.31 145.05 39.11 145.18 38.94C144.95 38.9 144.89 39.01 144.76 38.99C144.65 38.99 144.53 38.8 144.43 38.97C144.3 39.03 144.19 38.92 144.07 38.89C143.83 38.89 143.54 38.96 143.43 38.72C143.39 38.62 143.43 38.51 143.5 38.43C143.73 38.23 144.11 38.44 144.34 38.23C144.6 38.15 144.87 38.32 145.07 38.1C145.32 37.86 145.62 37.66 145.83 37.39C145.87 37.2 146.01 37.02 145.95 36.83L145.77 36.13C145.5 36.28 145.63 36.57 145.55 36.78C145.52 36.88 145.46 36.97 145.38 37.05C145.27 37.06 145.17 36.94 145.05 37C144.94 37.03 144.87 37.19 144.76 37.1C144.65 37.03 144.58 36.85 144.42 36.91C144.31 36.96 144.26 37.16 144.12 37.07C144.04 37 144.01 36.87 143.89 36.85C143.78 36.83 143.74 36.94 143.64 36.93C143.47 36.85 143.42 36.54 143.2 36.71C143.12 36.71 143.05 36.77 142.98 36.73C142.89 36.63 142.89 36.49 142.77 36.43C142.64 36.41 142.5 36.5 142.38 36.43C142.33 36.33 142.38 36.18 142.23 36.14C142.03 36.14 141.82 36.21 141.62 36.17C141.56 36.08 141.67 35.99 141.67 35.89C141.69 35.82 141.77 35.76 141.73 35.68C141.62 35.58 141.49 35.65 141.36 35.63C141.28 35.6 141.16 35.63 141.1 35.53C141.1 35.37 141.17 35.22 141.24 35.08C141.16 34.89 140.94 35.03 140.78 34.99C140.7 34.96 140.58 34.94 140.52 34.86C140.52 34.71 140.69 34.61 140.72 34.46C140.66 34.36 140.53 34.38 140.44 34.32C140.37 34.25 140.17 34.27 140.22 34.13C140.29 33.93 140.49 33.83 140.61 33.66C140.54 33.49 140.33 33.42 140.21 33.26C140.32 33.03 140.48 32.91 140.63 32.81C140.67 32.76 140.63 32.69 140.59 32.65C140.48 32.5 140.32 32.41 140.23 32.25C140.37 32.13 140.54 32.04 140.73 32.01C140.69 31.75 140.53 31.63 140.47 31.48C140.71 31.38 141.01 31.48 141.24 31.36C141.11 31.11 140.97 30.98 140.84 30.8C140.86 30.72 140.96 30.77 141.02 30.75C141.23 30.72 141.43 30.81 141.64 30.81C141.45 30.56 141.24 30.33 141.25 30.05C141.71 30.1 142.02 30.36 142.36 30.54C142.32 30.15 141.84 29.89 141.85 29.49C142.35 29.71 142.74 29.94 143.08 30.25C142.95 29.89 142.92 29.56 142.73 29.32C142.64 29.17 142.65 28.98 142.64 28.82C142.75 28.79 142.8 28.93 142.89 28.97C143.1 29.21 143.3 29.45 143.44 29.73C143.65 29.71 143.6 29.57 143.55 29.46C143.49 29.31 143.46 29.17 143.45 28.99C143.36 28.76 143.37 28.57 143.44 28.33C143.7 28.4 143.71 28.59 143.8 28.73C143.89 28.95 143.93 29.21 144 29.44C144.05 29.53 144 29.63 144.09 29.69C144.25 29.67 144.13 29.5 144.16 29.39C144.16 29.12 144.22 28.8 144.16 28.53C144.1 28.26 144.21 28.01 144.39 27.84H144.44L144.39 27.87Z" fill="currentColor"></path><path fill-rule="evenodd" clip-rule="evenodd" d="M136.29 35.84L135.76 36.15C135.7 36.19 135.57 36.25 135.54 36.25C135.31 36.28 135.4 35.97 135.29 35.98C135.25 35.98 135.24 36.01 135.24 36.06C135.26 36.23 135.29 36.39 135.31 36.56C135.33 36.73 135.34 36.9 135.36 37.06C135.36 37.1 135.37 37.13 135.42 37.13C135.51 37.12 135.36 36.93 135.6 36.79L137.53 35.65C138.07 35.33 138.21 35.32 138.21 35.26C138.21 35.21 138.15 35.23 137.94 35.17C137.67 35.08 137.67 35.01 137.61 35.02C137.56 35.02 137.49 35.14 137.46 35.14C137.42 35.14 137.26 35.09 135.9 34.75C135.59 34.67 135.35 34.56 135.24 34.47C135.12 34.36 135.14 34.2 135.07 34.2C135.03 34.2 135.02 34.22 135.02 34.26C135.04 34.41 135.06 34.55 135.08 34.68C135.12 34.96 135.12 35.07 135.13 35.16C135.13 35.21 135.13 35.23 135.19 35.22C135.29 35.21 135.14 34.87 135.58 34.82C135.71 34.81 135.84 34.84 136.18 34.92L136.3 35.85L136.29 35.84ZM136.39 35.78L136.28 34.93L137.39 35.19L136.39 35.77V35.78Z" fill="currentColor"></path><path fill-rule="evenodd" clip-rule="evenodd" d="M136.65 38.36C136.22 38.59 136.06 39.09 136.42 39.78C136.73 40.36 137.21 40.49 137.74 40.21L138.92 39.58C139.25 39.4 139.48 39.46 139.6 39.58C139.68 39.66 139.69 39.71 139.74 39.68C139.78 39.66 139.77 39.63 139.74 39.58C139.67 39.44 139.61 39.35 139.53 39.19C139.45 39.03 139.4 38.93 139.33 38.8C139.3 38.74 139.28 38.72 139.25 38.74C139.2 38.77 139.24 38.81 139.25 38.92C139.28 39.09 139.19 39.31 138.87 39.48L137.68 40.11C137.22 40.35 136.83 40.27 136.59 39.83C136.37 39.42 136.47 39.02 136.88 38.81L138.51 37.94C138.77 37.8 138.81 38.18 138.9 38.13C138.94 38.11 138.94 38.08 138.91 38.02C138.84 37.89 138.78 37.8 138.66 37.57C138.54 37.35 138.5 37.25 138.43 37.12C138.4 37.06 138.38 37.04 138.33 37.07C138.23 37.12 138.52 37.37 138.26 37.5L136.64 38.36H136.65Z" fill="currentColor"></path><path fill-rule="evenodd" clip-rule="evenodd" d="M138.5 42.58C138.5 42.58 138.48 42.63 138.5 42.64C138.56 42.69 138.61 42.54 138.74 42.64C138.82 42.71 138.94 43.02 139.17 43.22C139.69 43.66 140.24 43.51 140.54 43.16C141.22 42.35 139.85 41.55 140.36 40.94C140.54 40.73 140.81 40.7 141.05 40.91C141.42 41.22 141.32 41.68 141.11 42.16C141.09 42.21 141.06 42.26 141.09 42.28C141.11 42.3 141.14 42.3 141.16 42.26C141.2 42.22 141.38 41.97 141.73 41.47C141.76 41.43 141.76 41.41 141.73 41.39C141.67 41.34 141.62 41.48 141.53 41.4C141.41 41.29 141.41 41.07 141.12 40.83C140.75 40.52 140.19 40.55 139.9 40.9C139.21 41.72 140.64 42.45 140.08 43.13C139.89 43.36 139.58 43.43 139.25 43.16C138.82 42.8 139 42.24 139.29 41.78C139.34 41.7 139.36 41.67 139.33 41.64C139.31 41.63 139.29 41.62 139.26 41.65L138.49 42.57L138.5 42.58Z" fill="currentColor"></path><path fill-rule="evenodd" clip-rule="evenodd" d="M144.2 42.77C144.6 42.91 144.82 43.39 144.86 43.78C144.87 43.89 144.87 43.95 144.9 43.96C144.93 43.96 144.94 43.96 144.95 43.94C144.97 43.89 144.98 43.78 144.99 43.7L145.09 42.98C145.09 42.98 145.11 42.9 145.07 42.89C145.05 42.89 145.03 42.89 145.01 42.91C144.98 42.91 144.94 42.92 144.85 42.89L143.12 42.3C143.04 42.27 143.01 42.24 142.99 42.22C142.98 42.2 142.97 42.18 142.95 42.17C142.91 42.16 142.89 42.21 142.88 42.23L142.52 42.86C142.48 42.93 142.42 43.03 142.4 43.07C142.4 43.09 142.4 43.11 142.43 43.12C142.45 43.12 142.49 43.08 142.57 43C142.84 42.72 143.31 42.47 143.72 42.61L142.9 45.01C142.8 45.29 142.45 45.01 142.42 45.12C142.4 45.17 142.44 45.19 142.51 45.21C142.7 45.28 142.8 45.3 143.04 45.38C143.28 45.46 143.38 45.51 143.57 45.57C143.63 45.59 143.68 45.6 143.69 45.55C143.73 45.45 143.29 45.44 143.38 45.17L144.21 42.78L144.2 42.77Z" fill="currentColor"></path><path fill-rule="evenodd" clip-rule="evenodd" d="M147.02 45.77C147.05 46.06 146.69 45.95 146.7 46.06C146.7 46.11 146.73 46.12 146.8 46.11C146.95 46.1 147.06 46.08 147.31 46.06C147.56 46.04 147.67 46.04 147.82 46.02C147.89 46.02 147.91 46 147.91 45.95C147.91 45.84 147.56 46.01 147.54 45.72L147.45 44.67H147.52C147.84 44.64 147.93 44.72 148.28 45.26L148.71 45.93C149.09 45.9 149.38 45.88 149.43 45.88C149.49 45.88 149.51 45.86 149.51 45.82C149.51 45.71 149.21 45.88 149 45.53L148.73 45.06C148.48 44.64 148.29 44.59 147.88 44.57C148.48 44.47 148.87 44.16 148.83 43.72C148.79 43.35 148.44 42.98 147.62 43.05C147.45 43.07 147.29 43.09 147.06 43.11C146.81 43.13 146.7 43.13 146.55 43.15C146.48 43.15 146.46 43.17 146.46 43.22C146.46 43.33 146.81 43.16 146.83 43.45L147.03 45.76L147.02 45.77ZM147.31 43.19L147.56 43.17C147.96 43.14 148.22 43.29 148.26 43.79C148.3 44.29 148.08 44.51 147.63 44.55L147.44 44.57L147.32 43.19H147.31Z" fill="currentColor"></path><path fill-rule="evenodd" clip-rule="evenodd" d="M151.99 43.74L152.46 44.14C152.51 44.18 152.61 44.28 152.63 44.32C152.73 44.53 152.41 44.55 152.46 44.65C152.48 44.68 152.5 44.69 152.54 44.67C152.7 44.59 152.84 44.51 152.99 44.44C153.14 44.36 153.3 44.3 153.45 44.22C153.49 44.2 153.51 44.18 153.49 44.14C153.45 44.05 153.32 44.26 153.11 44.07L151.4 42.62C150.92 42.22 150.86 42.08 150.81 42.11C150.76 42.13 150.81 42.18 150.81 42.39C150.81 42.67 150.75 42.69 150.78 42.75C150.8 42.8 150.93 42.83 150.94 42.85C150.96 42.88 150.96 43.06 151.08 44.45C151.11 44.76 151.08 45.03 151.02 45.17C150.96 45.32 150.79 45.35 150.83 45.42C150.85 45.45 150.86 45.46 150.9 45.44C151.04 45.37 151.15 45.31 151.28 45.25C151.54 45.13 151.63 45.09 151.71 45.05C151.75 45.03 151.77 45.02 151.75 44.98C151.7 44.89 151.43 45.13 151.24 44.74C151.18 44.63 151.18 44.49 151.13 44.14L151.97 43.73L151.99 43.74ZM151.91 43.67L151.14 44.04L151.03 42.91L151.91 43.67Z" fill="currentColor"></path><path fill-rule="evenodd" clip-rule="evenodd" d="M154.85 42.61C155.06 42.81 154.72 42.97 154.8 43.04C154.84 43.08 154.86 43.06 154.91 43.02C155.01 42.91 155.08 42.83 155.25 42.64C155.89 41.95 156.15 41.69 156.37 41.45L155.77 40.65C155.73 40.6 155.7 40.57 155.68 40.55C155.67 40.54 155.64 40.53 155.62 40.55C155.6 40.57 155.61 40.6 155.64 40.66C155.87 41.04 156.01 41.68 155.56 42.16C155.42 42.31 155.3 42.35 155.12 42.18L153.49 40.66C153.27 40.46 153.62 40.3 153.54 40.22C153.5 40.18 153.48 40.2 153.43 40.25C153.33 40.36 153.26 40.45 153.09 40.63C152.92 40.82 152.84 40.89 152.73 41C152.69 41.05 152.67 41.07 152.71 41.11C152.79 41.18 152.93 40.83 153.14 41.03L154.84 42.62L154.85 42.61Z" fill="currentColor"></path><path fill-rule="evenodd" clip-rule="evenodd" d="M157.32 39.19C157.58 39.31 157.32 39.57 157.41 39.62C157.45 39.64 157.48 39.62 157.5 39.56C157.56 39.42 157.6 39.32 157.71 39.09C157.82 38.86 157.87 38.77 157.94 38.63C157.96 38.57 157.97 38.54 157.92 38.52C157.82 38.47 157.8 38.85 157.53 38.73L155.42 37.75C155.15 37.63 155.43 37.37 155.33 37.32C155.29 37.3 155.27 37.32 155.24 37.38C155.18 37.51 155.14 37.62 155.03 37.85C154.93 38.08 154.87 38.17 154.8 38.31C154.77 38.37 154.77 38.4 154.82 38.42C154.92 38.47 154.94 38.09 155.2 38.22L157.31 39.2L157.32 39.19Z" fill="currentColor"></path><path fill-rule="evenodd" clip-rule="evenodd" d="M157.67 35.15L158.26 34.98C158.33 34.96 158.47 34.93 158.5 34.94C158.73 34.97 158.57 35.25 158.68 35.26C158.72 35.26 158.73 35.24 158.74 35.2C158.76 35.03 158.77 34.86 158.79 34.7C158.81 34.53 158.84 34.37 158.86 34.2C158.86 34.16 158.86 34.13 158.82 34.12C158.73 34.11 158.82 34.32 158.56 34.4L156.42 35.04C155.82 35.22 155.68 35.2 155.67 35.26C155.67 35.31 155.73 35.3 155.91 35.41C156.15 35.56 156.13 35.63 156.2 35.64C156.25 35.64 156.35 35.55 156.38 35.56C156.42 35.56 156.57 35.65 157.8 36.32C158.08 36.47 158.29 36.63 158.37 36.76C158.46 36.89 158.4 37.05 158.48 37.06C158.51 37.06 158.53 37.06 158.54 37.01C158.56 36.86 158.57 36.72 158.58 36.58C158.61 36.3 158.63 36.2 158.64 36.11C158.64 36.06 158.65 36.04 158.6 36.04C158.5 36.03 158.56 36.39 158.12 36.34C157.99 36.32 157.88 36.26 157.56 36.1L157.67 35.17V35.15ZM157.56 35.18L157.45 36.03L156.44 35.51L157.56 35.19V35.18Z" fill="currentColor"></path><path fill-rule="evenodd" clip-rule="evenodd" d="M139.84 28.8C139.84 28.8 139.89 28.82 139.9 28.8C139.96 28.74 139.8 28.69 139.93 28.56C140.01 28.48 140.33 28.38 140.54 28.15C141.03 27.63 140.91 27.07 140.57 26.75C139.8 26.03 138.89 27.39 138.31 26.85C138.11 26.66 138.1 26.39 138.32 26.14C138.65 25.78 139.13 25.9 139.59 26.13C139.63 26.15 139.68 26.19 139.7 26.16C139.72 26.14 139.72 26.11 139.69 26.08C139.65 26.04 139.42 25.85 138.94 25.48C138.9 25.45 138.88 25.45 138.86 25.47C138.8 25.53 138.94 25.58 138.86 25.68C138.75 25.8 138.52 25.79 138.25 26.08C137.91 26.44 137.91 27.01 138.24 27.32C139.02 28.05 139.86 26.62 140.5 27.23C140.72 27.43 140.78 27.75 140.48 28.07C140.09 28.49 139.53 28.28 139.09 27.97C139.01 27.92 138.98 27.9 138.95 27.93C138.94 27.95 138.93 27.97 138.95 28L139.83 28.82L139.84 28.8Z" fill="currentColor"></path><path fill-rule="evenodd" clip-rule="evenodd" d="M143.57 24.36C143.97 25.26 143.78 25.85 143.25 26.08C142.73 26.31 142.16 26.06 141.76 25.16C141.36 24.26 141.56 23.67 142.08 23.44C142.6 23.21 143.17 23.46 143.57 24.35M142.04 23.34C141.37 23.64 140.84 24.5 141.24 25.39C141.64 26.28 142.63 26.46 143.3 26.17C143.97 25.87 144.49 25.01 144.1 24.12C143.7 23.23 142.72 23.05 142.05 23.35" fill="currentColor"></path><path fill-rule="evenodd" clip-rule="evenodd" d="M145.68 24.55C145.68 25.04 146.07 25.41 146.88 25.4C147.56 25.4 147.9 25.03 147.9 24.42L147.88 23.08C147.88 22.71 148.03 22.53 148.2 22.47C148.31 22.43 148.36 22.45 148.36 22.39C148.36 22.35 148.33 22.34 148.26 22.34C148.11 22.34 147.99 22.35 147.8 22.36C147.62 22.36 147.5 22.36 147.34 22.36C147.27 22.36 147.24 22.36 147.25 22.41C147.25 22.47 147.3 22.45 147.42 22.49C147.59 22.54 147.75 22.71 147.76 23.08L147.78 24.43C147.78 24.95 147.53 25.26 147.02 25.27C146.55 25.27 146.22 25.01 146.22 24.55L146.19 22.7C146.19 22.41 146.55 22.54 146.55 22.43C146.55 22.38 146.52 22.37 146.45 22.37C146.3 22.37 146.19 22.38 145.92 22.39C145.66 22.39 145.54 22.39 145.39 22.39C145.32 22.39 145.3 22.39 145.3 22.45C145.3 22.56 145.66 22.41 145.67 22.7L145.7 24.54L145.68 24.55Z" fill="currentColor"></path><path fill-rule="evenodd" clip-rule="evenodd" d="M151.49 23.39C151.9 23.56 152.1 24.06 152.13 24.45C152.13 24.56 152.13 24.62 152.16 24.63C152.19 24.64 152.2 24.63 152.21 24.61C152.23 24.56 152.25 24.46 152.26 24.37L152.4 23.66C152.4 23.66 152.42 23.58 152.39 23.56C152.37 23.56 152.35 23.56 152.33 23.57C152.3 23.57 152.26 23.57 152.17 23.54L150.42 22.84C150.33 22.81 150.3 22.78 150.29 22.75C150.28 22.73 150.27 22.71 150.25 22.7C150.21 22.68 150.19 22.74 150.17 22.76L149.77 23.37C149.72 23.44 149.66 23.53 149.64 23.57C149.64 23.59 149.64 23.6 149.66 23.62C149.68 23.62 149.72 23.58 149.81 23.51C150.1 23.25 150.6 23.03 151.01 23.19L150.06 25.54C149.95 25.81 149.6 25.52 149.56 25.62C149.54 25.67 149.58 25.69 149.64 25.72C149.83 25.8 149.94 25.83 150.18 25.93C150.42 26.03 150.52 26.08 150.71 26.16C150.77 26.18 150.82 26.19 150.83 26.14C150.87 26.04 150.42 26.01 150.53 25.74L151.48 23.39H151.49Z" fill="currentColor"></path><path fill-rule="evenodd" clip-rule="evenodd" d="M154.65 27.22L153.82 28.08C153.62 28.29 153.45 27.94 153.38 28.02C153.34 28.06 153.35 28.08 153.41 28.13C153.52 28.24 153.61 28.31 153.8 28.49C153.98 28.67 154.06 28.76 154.17 28.86C154.22 28.91 154.25 28.92 154.28 28.88C154.36 28.8 154 28.65 154.2 28.44L155.82 26.77C156.03 26.56 156.19 26.91 156.26 26.83C156.3 26.79 156.28 26.77 156.23 26.72C156.12 26.61 156.03 26.54 155.84 26.36C155.65 26.18 155.58 26.1 155.47 25.99C155.42 25.94 155.4 25.93 155.36 25.97C155.29 26.05 155.64 26.2 155.44 26.41L154.73 27.15L153.83 26.27L154.54 25.53C154.74 25.32 154.91 25.67 154.98 25.59C155.02 25.55 155 25.53 154.95 25.48C154.84 25.37 154.75 25.3 154.57 25.12C154.38 24.94 154.31 24.85 154.2 24.75C154.15 24.7 154.13 24.69 154.09 24.73C154.02 24.81 154.37 24.96 154.17 25.17L152.56 26.84C152.36 27.05 152.19 26.7 152.12 26.78C152.08 26.82 152.1 26.84 152.14 26.89C152.25 27 152.34 27.07 152.53 27.25C152.72 27.43 152.79 27.52 152.9 27.62C152.95 27.67 152.98 27.68 153.01 27.64C153.09 27.56 152.73 27.41 152.93 27.2L153.76 26.34L154.66 27.22H154.65Z" fill="currentColor"></path><path fill-rule="evenodd" clip-rule="evenodd" d="M146.51 21.3C140.4 21.53 135.44 25.95 134.3 31.69L132.98 31.44C134.28 24.89 140.06 19.95 146.99 19.95C153.92 19.95 159.55 24.77 160.95 31.19L159.63 31.46C158.33 25.46 152.87 21.06 146.52 21.29" fill="currentColor"></path><path fill-rule="evenodd" clip-rule="evenodd" d="M159.9 35.02C159.92 34.6 159.93 34.18 159.91 33.76C159.89 33.06 159.8 32.38 159.67 31.71L160.99 31.44C161.17 32.34 161.26 33.28 161.26 34.24C161.26 34.53 161.26 34.83 161.23 35.12L159.89 35.03L159.9 35.02Z" fill="currentColor"></path><path fill-rule="evenodd" clip-rule="evenodd" d="M159.74 36.39C159.8 36.02 159.85 35.64 159.88 35.26L161.22 35.36C161.19 35.79 161.13 36.21 161.06 36.63L159.74 36.39Z" fill="currentColor"></path><path fill-rule="evenodd" clip-rule="evenodd" d="M134.31 36.85C135.56 42.93 141.05 47.39 147.45 47.16C153.61 46.93 158.6 42.44 159.69 36.63L161.01 36.87C159.77 43.49 153.96 48.51 146.97 48.51C139.98 48.51 134.32 43.62 132.98 37.11L134.3 36.85H134.31Z" fill="currentColor"></path><path fill-rule="evenodd" clip-rule="evenodd" d="M134.11 35.48C134.15 35.86 134.2 36.24 134.27 36.61L132.95 36.87C132.87 36.45 132.81 36.03 132.77 35.6L134.11 35.48Z" fill="currentColor"></path><path fill-rule="evenodd" clip-rule="evenodd" d="M134.25 31.92C134.09 32.82 134.02 33.75 134.05 34.7C134.05 34.88 134.07 35.06 134.08 35.24L132.74 35.36C132.71 34.99 132.7 34.61 132.7 34.23C132.7 33.36 132.78 32.5 132.93 31.68L134.25 31.93V31.92Z" fill="currentColor"></path><path d="M131.43 52.63C131.06 52.52 130.67 52.45 130.18 52.45C128.73 52.45 127.84 53.27 127.84 54.72C127.84 56.17 128.8 56.85 130.18 56.85C130.64 56.85 131.11 56.75 131.56 56.63V54.34H129.84V55.01H130.74V56.12C130.59 56.16 130.41 56.18 130.18 56.18C129.27 56.18 128.73 55.53 128.73 54.66C128.73 53.79 129.28 53.12 130.27 53.12C130.61 53.12 131.04 53.19 131.37 53.35L131.43 52.63Z" fill="currentColor"></path><path d="M132.5 55.24C132.5 56.14 133.1 56.86 134.14 56.86C135.18 56.86 135.79 56.14 135.79 55.24C135.79 54.2 135.08 53.58 134.14 53.58C133.2 53.58 132.5 54.21 132.5 55.24ZM133.35 55.14C133.35 54.67 133.61 54.21 134.14 54.21C134.67 54.21 134.93 54.66 134.93 55.14C134.93 55.67 134.76 56.23 134.14 56.23C133.52 56.23 133.35 55.66 133.35 55.14Z" fill="currentColor"></path><path d="M137.57 56.79H138.49L139.65 53.65H138.83L138.07 55.93H138.06L137.28 53.65H136.4L137.57 56.79Z" fill="currentColor"></path><path d="M141.04 54.91C141.08 54.49 141.31 54.17 141.77 54.17C142.23 54.17 142.41 54.51 142.43 54.91H141.04ZM142.98 55.94C142.68 56.11 142.33 56.26 141.94 56.26C141.43 56.26 141.08 55.97 141.04 55.47H143.21C143.21 54.37 142.88 53.58 141.72 53.58C140.74 53.58 140.26 54.33 140.26 55.24C140.26 56.27 140.86 56.87 141.9 56.87C142.34 56.87 142.68 56.78 142.98 56.62V55.96V55.94Z" fill="currentColor"></path><path d="M144.2 56.79H145.02V55.64C145.02 55.19 145.02 54.36 145.69 54.36C145.84 54.36 145.98 54.38 146.06 54.43V53.61C145.97 53.59 145.89 53.59 145.81 53.59C145.32 53.59 144.99 54.08 144.95 54.38H144.94V53.67H144.22V56.81L144.2 56.79Z" fill="currentColor"></path><path d="M146.98 56.79H147.8V55.25C147.8 54.85 147.93 54.21 148.52 54.21C149.04 54.21 149.05 54.73 149.05 55.11V56.79H149.87V54.81C149.87 54.1 149.55 53.58 148.8 53.58C148.37 53.58 148.03 53.72 147.77 54.08H147.76V53.65H146.99V56.79H146.98Z" fill="currentColor"></path><path d="M151.02 56.79H151.84V55.27C151.84 54.86 151.91 54.22 152.45 54.22C152.92 54.22 152.92 54.64 152.92 54.93V56.8H153.74V55.28C153.74 54.87 153.81 54.23 154.35 54.23C154.82 54.23 154.82 54.65 154.82 54.94V56.81H155.64V54.83C155.64 54.13 155.42 53.6 154.65 53.6C154.27 53.6 153.86 53.78 153.67 54.15C153.49 53.76 153.18 53.6 152.74 53.6C152.44 53.6 152.06 53.73 151.81 54.11H151.8V53.67H151.04V56.81L151.02 56.79Z" fill="currentColor"></path><path d="M157.35 54.91C157.39 54.49 157.62 54.17 158.07 54.17C158.52 54.17 158.71 54.51 158.73 54.91H157.34H157.35ZM159.29 55.94C158.98 56.11 158.64 56.26 158.25 56.26C157.74 56.26 157.39 55.97 157.36 55.47H159.53C159.53 54.37 159.2 53.58 158.04 53.58C157.07 53.58 156.58 54.33 156.58 55.24C156.58 56.27 157.18 56.87 158.22 56.87C158.66 56.87 159 56.78 159.3 56.62V55.96L159.29 55.94Z" fill="currentColor"></path><path d="M160.49 56.79H161.31V55.25C161.31 54.85 161.43 54.21 162.03 54.21C162.55 54.21 162.56 54.73 162.56 55.11V56.79H163.38V54.81C163.38 54.1 163.06 53.58 162.32 53.58C161.89 53.58 161.55 53.72 161.29 54.08H161.28V53.65H160.51V56.79H160.49Z" fill="currentColor"></path><path d="M164.8 55.84C164.8 56.46 165.15 56.86 165.79 56.86C166.03 56.86 166.22 56.84 166.39 56.79L166.37 56.14C166.29 56.2 166.14 56.23 166 56.23C165.69 56.23 165.62 55.98 165.62 55.71V54.25H166.35V53.65H165.62V52.76L164.8 53.02V53.65H164.2V54.25H164.8V55.85V55.84Z" fill="currentColor"></path><path d="M118.4 61.23C118.4 62.13 119 62.85 120.04 62.85C121.08 62.85 121.69 62.13 121.69 61.23C121.69 60.2 120.98 59.57 120.04 59.57C119.1 59.57 118.4 60.2 118.4 61.23ZM119.25 61.13C119.25 60.66 119.5 60.2 120.03 60.2C120.56 60.2 120.82 60.65 120.82 61.13C120.82 61.65 120.66 62.21 120.03 62.21C119.4 62.21 119.25 61.64 119.25 61.13Z" fill="currentColor"></path><path d="M122.95 62.78H123.77V60.24H124.48V59.64H123.77V59.25C123.77 59.01 123.86 58.77 124.13 58.77C124.31 58.77 124.41 58.84 124.49 58.88L124.56 58.21C124.4 58.17 124.17 58.14 123.96 58.14C123.32 58.14 122.96 58.58 122.96 59.21V59.65H122.36V60.25H122.96V62.79L122.95 62.78Z" fill="currentColor"></path><path d="M129.8 58.6C129.49 58.5 129.15 58.45 128.78 58.45C128.03 58.45 127.29 58.8 127.29 59.75C127.29 61.16 129.15 60.82 129.15 61.63C129.15 62.01 128.72 62.18 128.39 62.18C128.06 62.18 127.72 62.08 127.43 61.92L127.35 62.69C127.77 62.79 127.98 62.85 128.44 62.85C129.3 62.85 130.04 62.49 130.04 61.56C130.04 60.13 128.18 60.44 128.18 59.7C128.18 59.24 128.56 59.11 128.85 59.11C129.14 59.11 129.45 59.18 129.72 59.29L129.8 58.59V58.6Z" fill="currentColor"></path><path d="M130.88 61.23C130.88 62.13 131.48 62.85 132.52 62.85C133.56 62.85 134.17 62.13 134.17 61.23C134.17 60.2 133.46 59.57 132.52 59.57C131.58 59.57 130.88 60.2 130.88 61.23ZM131.73 61.13C131.73 60.66 131.99 60.2 132.52 60.2C133.05 60.2 133.31 60.65 133.31 61.13C133.31 61.65 133.15 62.21 132.52 62.21C131.89 62.21 131.73 61.64 131.73 61.13Z" fill="currentColor"></path><path d="M138.01 59.64H137.19V61.18C137.19 61.58 137.06 62.22 136.47 62.22C135.94 62.22 135.94 61.7 135.94 61.32V59.64H135.12V61.62C135.12 62.33 135.44 62.85 136.19 62.85C136.62 62.85 136.97 62.65 137.22 62.35H137.23V62.78H138V59.64H138.01Z" fill="currentColor"></path><path d="M139.44 61.83C139.44 62.45 139.8 62.85 140.43 62.85C140.67 62.85 140.86 62.82 141.03 62.77L141.01 62.12C140.92 62.18 140.78 62.21 140.64 62.21C140.33 62.21 140.25 61.96 140.25 61.69V60.23H140.98V59.63H140.25V58.74L139.43 59V59.63H138.83V60.23H139.43V61.82L139.44 61.83Z" fill="currentColor"></path><path d="M141.87 62.78H142.69V61.25C142.69 60.85 142.82 60.21 143.41 60.21C143.94 60.21 143.94 60.73 143.94 61.11V62.79H144.76V60.81C144.76 60.1 144.44 59.58 143.69 59.58C143.26 59.58 142.91 59.77 142.7 60.08H142.69V58.22H141.87V62.79V62.78Z" fill="currentColor"></path><path d="M150.31 61.13H149.07L149.69 59.37H149.7L150.32 61.13H150.31ZM147.57 62.77H148.45L148.82 61.79H150.54L150.91 62.77H151.85L150.18 58.52H149.22L147.56 62.77H147.57Z" fill="currentColor"></path><path d="M155.54 59.64H154.73V61.18C154.73 61.58 154.6 62.22 154.01 62.22C153.49 62.22 153.48 61.7 153.48 61.32V59.64H152.66V61.62C152.66 62.33 152.98 62.85 153.73 62.85C154.16 62.85 154.51 62.65 154.76 62.35H154.77V62.78H155.54V59.64Z" fill="currentColor"></path><path d="M158.63 59.68C158.38 59.63 158.13 59.57 157.74 59.57C157.1 59.57 156.51 59.87 156.51 60.54C156.51 61.68 157.93 61.25 157.93 61.87C157.93 62.17 157.6 62.25 157.39 62.25C157.11 62.25 156.84 62.17 156.59 62.04L156.54 62.71C156.84 62.79 157.15 62.84 157.47 62.84C158.13 62.84 158.79 62.55 158.79 61.82C158.79 60.69 157.37 61 157.37 60.5C157.37 60.23 157.63 60.15 157.85 60.15C158.15 60.15 158.33 60.2 158.58 60.28L158.63 59.66V59.68Z" fill="currentColor"></path><path d="M160.01 61.83C160.01 62.45 160.36 62.85 161 62.85C161.24 62.85 161.43 62.82 161.6 62.77L161.58 62.12C161.5 62.18 161.35 62.21 161.21 62.21C160.9 62.21 160.83 61.96 160.83 61.69V60.23H161.56V59.63H160.83V58.74L160.01 59V59.63H159.41V60.23H160.01V61.82V61.83Z" fill="currentColor"></path><path d="M162.46 62.78H163.28V61.63C163.28 61.18 163.28 60.35 163.94 60.35C164.09 60.35 164.23 60.37 164.31 60.42V59.6C164.22 59.58 164.14 59.58 164.06 59.58C163.57 59.58 163.24 60.07 163.2 60.37H163.19V59.66H162.47V62.8L162.46 62.78Z" fill="currentColor"></path><path d="M165.3 60.51C165.57 60.3 165.92 60.17 166.27 60.17C166.75 60.17 166.98 60.34 166.98 60.85H166.53C166.19 60.85 165.79 60.88 165.48 61.03C165.17 61.18 164.94 61.46 164.94 61.92C164.94 62.52 165.48 62.85 166.04 62.85C166.41 62.85 166.82 62.65 167.01 62.31H167.02C167.02 62.41 167.02 62.61 167.06 62.78H167.78C167.76 62.54 167.75 62.32 167.74 62.08C167.74 61.85 167.73 61.61 167.73 61.3V60.9C167.73 59.97 167.33 59.58 166.38 59.58C166.03 59.58 165.61 59.67 165.29 59.82L165.32 60.52L165.3 60.51ZM165.71 61.87C165.71 61.39 166.25 61.33 166.62 61.33H166.98C166.98 61.57 166.94 61.8 166.81 61.97C166.68 62.14 166.49 62.25 166.24 62.25C165.95 62.25 165.72 62.13 165.72 61.86" fill="currentColor"></path><path d="M169.68 58.21H168.86V62.78H169.68V58.21Z" fill="currentColor"></path><path d="M170.88 62.78H171.7V59.64H170.88V62.78ZM170.88 59.07H171.7V58.29H170.88V59.07Z" fill="currentColor"></path><path d="M173.05 60.51C173.32 60.3 173.67 60.17 174.02 60.17C174.5 60.17 174.73 60.34 174.73 60.85H174.28C173.94 60.85 173.54 60.88 173.23 61.03C172.91 61.18 172.69 61.46 172.69 61.92C172.69 62.52 173.23 62.85 173.79 62.85C174.16 62.85 174.57 62.65 174.76 62.31H174.77C174.77 62.41 174.77 62.61 174.81 62.78H175.53C175.51 62.54 175.5 62.32 175.49 62.08C175.49 61.85 175.48 61.61 175.48 61.3V60.9C175.48 59.97 175.08 59.58 174.13 59.58C173.78 59.58 173.36 59.67 173.04 59.82L173.07 60.52L173.05 60.51ZM173.46 61.87C173.46 61.39 174 61.33 174.37 61.33H174.73C174.73 61.57 174.69 61.8 174.56 61.97C174.43 62.14 174.24 62.25 173.99 62.25C173.7 62.25 173.47 62.13 173.47 61.86" fill="currentColor"></path><path d="M60.4 24.27L56.58 20.45H60.4V24.27Z" fill="currentColor"></path><path d="M65.49 29.36L61.67 25.54H65.49V29.36Z" fill="currentColor"></path><path d="M65.49 24.27L61.67 20.45H65.49V24.27Z" fill="currentColor"></path><path d="M70.58 34.45L66.76 30.63H70.58V34.45Z" fill="currentColor"></path><path d="M70.58 29.36L66.76 25.54H70.58V29.36Z" fill="currentColor"></path><path d="M70.58 24.27L66.76 20.45H70.58V24.27Z" fill="currentColor"></path><path d="M75.67 39.54L71.85 35.72H75.67V39.54Z" fill="currentColor"></path><path d="M75.67 34.45L71.85 30.63H75.67V34.45Z" fill="currentColor"></path><path d="M75.67 29.36L71.85 25.54H75.67V29.36Z" fill="currentColor"></path><path d="M75.67 24.27L71.85 20.45H75.67V24.27Z" fill="currentColor"></path><path d="M36.22 0.0899963L40.04 3.92V0.0899963H36.22Z" fill="currentColor"></path><path d="M45.13 9.00999L41.31 5.17999H45.13V9.00999Z" fill="currentColor"></path><path d="M41.31 0.0899963L45.13 3.92V0.0899963H41.31Z" fill="currentColor"></path><path d="M50.22 14.1L46.4 10.27H50.22V14.1Z" fill="currentColor"></path><path d="M50.22 9.00999L46.4 5.17999H50.22V9.00999Z" fill="currentColor"></path><path d="M46.4 0.0899963L50.22 3.92V0.0899963H46.4Z" fill="currentColor"></path><path d="M55.31 19.18L51.49 15.36H55.31V19.18Z" fill="currentColor"></path><path d="M55.31 14.1L51.49 10.27H55.31V14.1Z" fill="currentColor"></path><path d="M55.31 9.00999L51.49 5.17999H55.31V9.00999Z" fill="currentColor"></path><path d="M51.49 0.0899963L55.31 3.92V0.0899963H51.49Z" fill="currentColor"></path><path d="M80.76 24.27L76.94 20.45H80.76V24.27Z" fill="currentColor"></path><path d="M85.85 29.36L82.03 25.54H85.85V29.36Z" fill="currentColor"></path><path d="M85.85 24.27L82.03 20.45H85.85V24.27Z" fill="currentColor"></path><path d="M90.94 34.45L87.12 30.63H90.94V34.45Z" fill="currentColor"></path><path d="M90.94 29.36L87.12 25.54H90.94V29.36Z" fill="currentColor"></path><path d="M90.94 24.27L87.12 20.45H90.94V24.27Z" fill="currentColor"></path><path d="M6.3 53.74C6.72 53.74 7.11 53.66 7.48 53.51C7.85 53.36 8.17 53.14 8.45 52.86C8.73 52.58 8.95 52.26 9.1 51.89C9.26 51.53 9.33 51.13 9.33 50.71C9.33 50.29 9.25 49.9 9.1 49.53C8.95 49.16 8.73 48.84 8.45 48.57C8.17 48.3 7.85 48.08 7.48 47.93C7.12 47.77 6.72 47.7 6.3 47.7H1.26V53.74H6.3ZM5.04 54.98H1.26V62.16C1.26 62.33 1.2 62.48 1.07 62.6C0.95 62.72 0.8 62.79 0.63 62.79C0.44 62.79 0.29 62.73 0.17 62.6C0.05 62.48 0 62.33 0 62.16V47.52C0 47.21 0.1 46.96 0.29 46.76C0.48 46.57 0.73 46.47 1.02 46.47H6.3C6.89 46.47 7.45 46.59 7.97 46.81C8.49 47.03 8.94 47.34 9.32 47.73C9.7 48.12 10 48.57 10.23 49.08C10.46 49.59 10.57 50.14 10.57 50.71C10.57 51.28 10.47 51.83 10.25 52.33C10.04 52.84 9.75 53.28 9.39 53.66C9.03 54.04 8.6 54.35 8.11 54.58C7.62 54.82 7.09 54.95 6.53 54.98L10.22 61.86C10.25 61.94 10.27 62 10.28 62.04C10.28 62.08 10.28 62.12 10.28 62.17C10.28 62.34 10.22 62.49 10.1 62.61C9.98 62.73 9.83 62.8 9.65 62.8C9.39 62.8 9.2 62.68 9.09 62.43L5.03 55L5.04 54.98Z" fill="currentColor"></path><path d="M19.73 56.3V55.44C19.73 54.34 19.46 53.5 18.92 52.94C18.38 52.37 17.57 52.09 16.48 52.09C15.48 52.09 14.71 52.39 14.16 53C13.61 53.61 13.34 54.42 13.34 55.45V56.31H19.73V56.3ZM13.34 57.46C13.35 58.15 13.41 58.74 13.51 59.26C13.61 59.77 13.78 60.2 14.01 60.55C14.25 60.9 14.55 61.17 14.94 61.35C15.33 61.52 15.82 61.62 16.41 61.62H19.98C20.16 61.62 20.31 61.67 20.42 61.78C20.53 61.89 20.58 62.03 20.58 62.2C20.58 62.37 20.52 62.51 20.42 62.62C20.31 62.73 20.17 62.78 20 62.78H16.39C15.55 62.78 14.85 62.67 14.3 62.44C13.75 62.21 13.31 61.87 12.98 61.41C12.65 60.95 12.42 60.38 12.29 59.69C12.16 59 12.09 58.19 12.09 57.25V55.43C12.09 54.72 12.2 54.07 12.43 53.51C12.65 52.94 12.96 52.47 13.36 52.09C13.76 51.71 14.22 51.42 14.75 51.21C15.28 51.01 15.85 50.91 16.48 50.91C17.94 50.91 19.05 51.29 19.82 52.05C20.58 52.81 20.96 53.94 20.96 55.43V56.53C20.96 56.79 20.87 57.02 20.69 57.19C20.51 57.37 20.28 57.46 20 57.46H13.33H13.34Z" fill="currentColor"></path><path d="M31.04 54.81C31.04 54.41 30.97 54.04 30.84 53.7C30.71 53.37 30.53 53.08 30.32 52.84C30.1 52.6 29.84 52.41 29.55 52.28C29.25 52.15 28.94 52.08 28.62 52.08H24.7V62.1C24.7 62.3 24.64 62.46 24.51 62.59C24.39 62.71 24.24 62.78 24.07 62.78C23.9 62.78 23.76 62.72 23.64 62.59C23.52 62.47 23.47 62.32 23.47 62.15V51.92C23.47 51.66 23.56 51.42 23.74 51.22C23.92 51.02 24.16 50.92 24.45 50.92H28.62C29.1 50.92 29.57 51 30.01 51.18C30.45 51.35 30.84 51.6 31.19 51.94C31.53 52.27 31.8 52.68 32 53.16C32.19 53.64 32.29 54.19 32.29 54.82V62.16C32.29 62.33 32.23 62.48 32.1 62.6C31.98 62.72 31.83 62.79 31.66 62.79C31.49 62.79 31.35 62.73 31.23 62.6C31.12 62.48 31.06 62.33 31.06 62.16V54.82L31.04 54.81Z" fill="currentColor"></path><path d="M42.42 56.33V55.47C42.42 54.37 42.15 53.53 41.62 52.97C41.08 52.4 40.27 52.12 39.18 52.12C38.18 52.12 37.41 52.42 36.86 53.03C36.31 53.64 36.03 54.45 36.03 55.48V56.34H42.42V56.33ZM36.03 57.49C36.05 58.18 36.1 58.77 36.2 59.29C36.3 59.8 36.47 60.23 36.7 60.58C36.93 60.93 37.24 61.2 37.63 61.38C38.02 61.55 38.51 61.65 39.1 61.65H42.67C42.86 61.65 43 61.7 43.11 61.81C43.22 61.92 43.27 62.06 43.27 62.23C43.27 62.4 43.22 62.54 43.11 62.65C43 62.76 42.86 62.81 42.69 62.81H39.07C38.23 62.81 37.53 62.7 36.98 62.47C36.43 62.24 35.99 61.9 35.66 61.44C35.33 60.98 35.1 60.41 34.97 59.72C34.84 59.03 34.77 58.22 34.77 57.28V55.46C34.77 54.75 34.88 54.1 35.11 53.54C35.33 52.97 35.64 52.5 36.04 52.12C36.43 51.74 36.9 51.45 37.43 51.24C37.96 51.04 38.54 50.94 39.16 50.94C40.62 50.94 41.74 51.32 42.5 52.08C43.26 52.84 43.64 53.97 43.64 55.46V56.56C43.64 56.82 43.55 57.05 43.37 57.22C43.19 57.4 42.96 57.49 42.68 57.49H36.01H36.03Z" fill="currentColor"></path><path d="M56.68 61.17C56.76 61.43 56.93 61.57 57.19 61.57C57.49 61.57 57.67 61.45 57.75 61.19L60.1 51.59C60.21 51.3 60.41 51.15 60.69 51.15C60.85 51.15 60.98 51.21 61.11 51.32C61.23 51.44 61.3 51.58 61.3 51.75C61.3 51.77 61.3 51.79 61.29 51.82C61.29 51.85 61.29 51.89 61.29 51.91L58.96 61.47C58.86 61.86 58.66 62.17 58.33 62.41C58 62.65 57.63 62.77 57.21 62.77C56.79 62.77 56.43 62.65 56.13 62.41C55.83 62.17 55.62 61.86 55.51 61.49L53.36 53.66L51.26 61.49C51.15 61.86 50.94 62.17 50.63 62.41C50.32 62.65 49.95 62.77 49.51 62.77C49.11 62.77 48.75 62.65 48.43 62.4C48.11 62.15 47.9 61.84 47.81 61.47L45.53 51.94C45.53 51.94 45.51 51.82 45.51 51.73C45.51 51.58 45.57 51.44 45.69 51.31C45.81 51.19 45.95 51.12 46.12 51.12C46.26 51.12 46.38 51.17 46.49 51.26C46.6 51.35 46.67 51.46 46.7 51.58L49.01 61.16C49.09 61.42 49.26 61.56 49.52 61.56C49.82 61.56 50 61.43 50.08 61.16L52.64 51.91C52.73 51.57 52.97 51.4 53.36 51.4C53.75 51.4 54.01 51.57 54.11 51.91L56.7 61.16L56.68 61.17Z" fill="currentColor"></path><path d="M70.49 61.57V57.28H66.43C66.14 57.28 65.86 57.34 65.59 57.45C65.33 57.57 65.1 57.72 64.9 57.92C64.7 58.11 64.55 58.34 64.44 58.61C64.33 58.87 64.27 59.15 64.27 59.45C64.27 59.75 64.32 60.02 64.44 60.28C64.55 60.53 64.7 60.76 64.9 60.96C65.09 61.15 65.32 61.3 65.59 61.41C65.85 61.52 66.13 61.57 66.43 61.57H70.49ZM63.75 51.5C63.75 51.33 63.8 51.19 63.91 51.08C64.02 50.97 64.16 50.92 64.33 50.92H68.55C69.02 50.92 69.45 51 69.84 51.18C70.23 51.35 70.56 51.59 70.84 51.89C71.12 52.19 71.34 52.56 71.49 52.98C71.64 53.4 71.72 53.85 71.72 54.33V61.86C71.72 62.12 71.63 62.34 71.45 62.52C71.27 62.7 71.05 62.79 70.79 62.79H66.43C65.96 62.79 65.53 62.71 65.11 62.53C64.7 62.36 64.34 62.12 64.03 61.82C63.73 61.51 63.49 61.16 63.32 60.76C63.15 60.36 63.06 59.92 63.06 59.46C63.06 59 63.15 58.56 63.32 58.15C63.49 57.75 63.73 57.4 64.03 57.09C64.34 56.79 64.69 56.55 65.11 56.37C65.52 56.19 65.96 56.1 66.43 56.1H70.49V54.4C70.49 53.75 70.32 53.2 69.98 52.76C69.64 52.32 69.16 52.09 68.56 52.09H64.39C63.97 52.09 63.76 51.9 63.76 51.51" fill="currentColor"></path><path d="M74.45 47.28C74.45 47.09 74.51 46.94 74.62 46.83C74.74 46.72 74.89 46.66 75.08 46.66C75.25 46.66 75.4 46.72 75.52 46.83C75.64 46.95 75.7 47.12 75.7 47.33V62.11C75.7 62.31 75.64 62.47 75.52 62.6C75.4 62.72 75.25 62.79 75.08 62.79C74.89 62.79 74.74 62.73 74.62 62.6C74.51 62.48 74.45 62.33 74.45 62.16V47.29V47.28Z" fill="currentColor"></path><path d="M85.85 14.1L82.03 10.27H85.85V14.1Z" fill="currentColor"></path><path d="M90.94 19.18L87.12 15.36H90.94V19.18Z" fill="currentColor"></path><path d="M90.94 14.1L87.12 10.27H90.94V14.1Z" fill="currentColor"></path><path d="M78.41 62.18C78.41 62.01 78.47 61.87 78.58 61.75C78.7 61.63 78.84 61.58 79.01 61.58H83.53C84.74 61.58 85.67 61.3 86.32 60.74C86.97 60.18 87.29 59.25 87.29 57.94C87.29 57.43 87.22 57.01 87.07 56.67C86.92 56.33 86.69 56.06 86.38 55.85C86.07 55.64 85.67 55.47 85.19 55.34C84.71 55.21 84.14 55.08 83.49 54.96C82.79 54.82 82.13 54.68 81.52 54.53C80.9 54.38 80.37 54.16 79.9 53.86C79.43 53.56 79.07 53.16 78.8 52.65C78.54 52.14 78.41 51.44 78.41 50.57C78.41 49.81 78.53 49.17 78.76 48.64C78.99 48.12 79.33 47.7 79.77 47.37C80.21 47.04 80.75 46.81 81.38 46.67C82.01 46.53 82.72 46.46 83.51 46.46H87.45C87.65 46.46 87.82 46.52 87.94 46.65C88.06 46.77 88.13 46.92 88.13 47.07C88.13 47.24 88.06 47.39 87.94 47.51C87.82 47.63 87.67 47.7 87.5 47.7H83.51C82.3 47.7 81.34 47.91 80.65 48.33C79.96 48.75 79.61 49.5 79.61 50.57C79.61 51.18 79.71 51.66 79.9 52.03C80.09 52.4 80.37 52.69 80.73 52.9C81.08 53.12 81.52 53.29 82.02 53.41C82.52 53.52 83.09 53.64 83.71 53.75C84.47 53.89 85.15 54.05 85.74 54.23C86.33 54.41 86.83 54.65 87.23 54.96C87.63 55.27 87.95 55.67 88.16 56.15C88.38 56.63 88.49 57.23 88.49 57.95C88.49 59.69 88.07 60.93 87.23 61.68C86.39 62.42 85.15 62.8 83.52 62.8H79C78.83 62.8 78.69 62.74 78.57 62.61C78.46 62.49 78.4 62.35 78.4 62.19" fill="currentColor"></path><path d="M96.53 48.21C96.47 48.09 96.38 47.97 96.27 47.88C96.16 47.79 96.05 47.74 95.92 47.74C95.79 47.74 95.68 47.79 95.57 47.89C95.46 47.99 95.38 48.1 95.31 48.21C94.91 49.58 94.48 50.99 94.04 52.44C93.6 53.9 93.17 55.3 92.75 56.67H99.09L96.52 48.21H96.53ZM102.06 62.03C102.06 62.03 102.06 62.07 102.07 62.1C102.07 62.13 102.08 62.15 102.08 62.17C102.08 62.33 102.02 62.47 101.89 62.59C101.76 62.72 101.62 62.78 101.45 62.78C101.32 62.78 101.21 62.73 101.1 62.64C100.99 62.55 100.91 62.46 100.87 62.36L99.45 57.91H92.36L91.01 62.36C90.96 62.47 90.88 62.57 90.76 62.65C90.64 62.74 90.51 62.78 90.37 62.78C90.21 62.78 90.08 62.72 89.95 62.59C89.82 62.47 89.77 62.33 89.77 62.17C89.77 62.08 89.77 62 89.79 61.96C90.49 59.6 91.2 57.25 91.93 54.9C92.65 52.55 93.37 50.19 94.09 47.81C94.21 47.41 94.44 47.08 94.78 46.83C95.11 46.58 95.5 46.46 95.93 46.46C96.36 46.46 96.77 46.58 97.09 46.83C97.42 47.08 97.64 47.4 97.77 47.81L102.06 62.03Z" fill="currentColor"></path><path d="M65.49 9.00999L61.67 5.17999H65.49V9.00999Z" fill="currentColor"></path><path d="M70.58 14.1L66.76 10.27H70.58V14.1Z" fill="currentColor"></path><path d="M70.58 9.00999L66.76 5.17999H70.58V9.00999Z" fill="currentColor"></path><path d="M75.67 19.18L71.85 15.36H75.67V19.18Z" fill="currentColor"></path><path d="M75.67 14.1L71.85 10.27H75.67V14.1Z" fill="currentColor"></path><path d="M75.67 9.00999L71.85 5.17999H75.67V9.00999Z" fill="currentColor"></path><path d="M96.03 24.27L92.21 20.45H96.03V24.27Z" fill="currentColor"></path><path d="M101.12 29.36L97.3 25.54H101.12V29.36Z" fill="currentColor"></path><path d="M101.12 24.27L97.3 20.45H101.12V24.27Z" fill="currentColor"></path></svg>